# xmcd
#
# Track frame offsets:
# 150
# 20990
# 36699
# 56836
# 78237
# 98070
# 118803
# 138060
# 151842
# 171054
# 192036
# 210825
# 231953
# 251214
# 271431
# 292746
# 312427
#
# Disc length: 4422 seconds
#
#
# Revision: 0
# Processed by: cddbd v1.5.1PL2 Copyright (c) Steve Scherf et al.
# Submitted via: FreeRIP 2.944 
#
DISCID=ee114411
DTITLE=Tito Neves - fabricando fantasías
DYEAR=2005
DGENRE=Latin
TTITLE0=fabricando fantasias - salsa
TTITLE1=Ya no hay nada
TTITLE2=El capitan
TTITLE3=Sigue viviendo
TTITLE4=Lo que lo molesta
TTITLE5=Mi retirada
TTITLE6=El mecanico
TTITLE7=Ya no hay nada (raggae)
TTITLE8=fabricando fantasias - balada
TTITLE9=La salsa vive
TTITLE10=Y vivire
TTITLE11=mas pa'lante vive gente
TTITLE12=el caramelo
TTITLE13=te vas
TTITLE14=no puedo
TTITLE15=dime que sí
TTITLE16=te vas - balada
EXTD=
EXTT0=
EXTT1=
EXTT2=
EXTT3=
EXTT4=
EXTT5=
EXTT6=
EXTT7=
EXTT8=
EXTT9=
EXTT10=
EXTT11=
EXTT12=
EXTT13=
EXTT14=
EXTT15=
EXTT16=
PLAYORDER=
